# xmcd
#
# Track frame offsets: 
#        150
#        18726
#        33781
#        54350
#        69677
#        82484
#        98232
#        117511
#        135616
#        149408
#
# Disc length: 2245 seconds
#
# Revision: 1
# Processed by: cddbd v1.5.2PL0 Copyright (c) Steve Scherf et al.
# Submitted via: ExactAudioCopy v0.95b4
#
DISCID=9308c30a
DTITLE=Maria Muldaur - Southern Winds
DYEAR=1978
DGENRE=Blues
TTITLE0=Make Love To The Music
TTITLE1=Say You Will
TTITLE2=I'll Keep My Light In My Window
TTITLE3=I Got a Man
TTITLE4=Cajun Moon
TTITLE5=I Can't Say No
TTITLE6=Here is Where Your Love Belongs
TTITLE7=That's The Way Love Is
TTITLE8=Joyful Noise
TTITLE9=My Sisters And Brothers
EXTD=
EXTT0=
EXTT1=
EXTT2=
EXTT3=
EXTT4=
EXTT5=
EXTT6=
EXTT7=
EXTT8=
EXTT9=
PLAYORDER=
